<?xml version="1.0" encoding="utf-8"?>
<!-- Generator: Adobe Illustrator 23.0.3, SVG Export Plug-In . SVG Version: 6.00 Build 0)  -->
<svg version="1.1" id="Outlines_-_Full_Color" xmlns="http://www.w3.org/2000/svg" xmlns:xlink="http://www.w3.org/1999/xlink"
	 x="0px" y="0px" viewBox="0 0 156.4 163.4" style="enable-background:new 0 0 156.4 163.4;" xml:space="preserve">
<style type="text/css">
	.st0{clip-path:url(#SVGID_2_);}
	.st1{clip-path:url(#SVGID_4_);}
	.st2{fill:#FF7A59;}
</style>
<title>sprocket-web-color_sprocket-black-web</title>
<g id="Sprocket">
	<g>
		<defs>
			<rect id="SVGID_1_" width="156.4" height="163.4"/>
		</defs>
		<clipPath id="SVGID_2_">
			<use xlink:href="#SVGID_1_"  style="overflow:visible;"/>
		</clipPath>
		<g class="st0">
			<g>
				<defs>
					<rect id="SVGID_3_" width="156.4" height="163.4"/>
				</defs>
				<clipPath id="SVGID_4_">
					<use xlink:href="#SVGID_3_"  style="overflow:visible;"/>
				</clipPath>
				<g class="st1">
					<path class="st2" d="M119.9,54.3V35.1c5.2-2.4,8.5-7.6,8.6-13.4v-0.4c0-8.2-6.6-14.8-14.8-14.8h-0.4c-8.2,0-14.8,6.6-14.8,14.8
						v0.4c0,5.7,3.4,11,8.6,13.4v19.3c-7.3,1.1-14.2,4.2-20,8.8L34,22c2.4-9-2.9-18.3-12-20.7S3.8,4.2,1.4,13.2s2.9,18.3,12,20.7
						c4.3,1.2,8.9,0.6,12.8-1.7l52.1,40.5c-9.6,14.5-9.3,33.4,0.6,47.6l-15.8,15.8c-1.3-0.4-2.6-0.6-3.9-0.6
						c-7.6,0-13.8,6.2-13.8,13.8c0,7.6,6.2,13.8,13.8,13.8s13.7-6.2,13.7-13.8l0,0c0-1.3-0.2-2.7-0.6-3.9l15.7-15.7
						c18.5,14.2,45.1,10.6,59.2-7.9s10.6-45.1-7.9-59.2C133.5,58.2,126.9,55.4,119.9,54.3 M113.4,117.8c-12,0-21.7-9.8-21.6-21.7
						c0-12,9.8-21.7,21.7-21.6c12,0,21.6,9.7,21.6,21.7C135.1,108.1,125.4,117.8,113.4,117.8"/>
				</g>
			</g>
		</g>
	</g>
</g>
</svg>
